# This file uses centimeters as units for non-parametric coordinates.

mtllib PierreMaya.mtl
g default
v -138.187897 -3.617500 -25.063700
v -128.921600 -3.617500 -28.611000
v -140.712006 -1.751400 5.933700
v -154.699905 -3.617500 7.011800
v -136.928101 35.633701 -36.835999
v -159.635300 35.633701 -0.271500
v -147.833801 40.814499 0.991400
v -138.523697 44.901501 1.987700
v -128.675995 49.224602 3.041600
v -116.574402 41.584400 -27.555401
v -119.975502 38.759102 -35.021900
v -159.635300 20.790400 -0.271500
v -136.928101 20.790400 -36.835999
v -159.792999 3.840300 21.183901
v -145.486404 2.863500 29.867599
v -144.552902 20.790400 40.410198
v -168.125504 20.790400 20.292200
v -96.250603 -1.340300 36.061298
v -88.952103 -3.617500 7.292500
v -62.521500 26.012699 10.121000
v -97.959099 20.790400 46.564800
v -72.953201 1.560300 -11.008900
v -84.980598 0.038700 -17.874100
v -77.078201 21.157499 -19.189699
v -62.167301 22.736000 -9.082500
v -113.879303 -3.617500 -34.369499
v -96.021896 -1.358200 -24.176500
v -105.328300 -0.858100 5.540100
v -118.004997 1.277900 4.183500
v -123.312103 49.224602 37.264400
v -116.809196 49.224602 44.547600
v -103.814400 49.224602 45.938202
v -68.347603 54.240700 9.497500
v -122.262001 1.277900 43.964100
v -110.379898 -0.858100 40.707802
v -112.512901 20.790400 53.089199
v -123.778999 20.790400 58.139599
v -121.611504 -3.617500 -31.409401
v -116.975700 20.790400 -43.539902
v -112.904999 17.364901 -43.474602
v -134.199997 2.093000 36.718102
v -129.677002 -0.279200 5.083100
v -165.546204 35.633701 14.045100
v -143.096497 42.858002 26.387400
v -61.077301 26.012699 -3.374200
v -103.032997 -2.178800 38.694500
v -97.490196 -2.178800 6.378800
v -61.731400 54.725101 2.738400
v -61.340900 54.725101 -0.911000
v -85.023598 49.090698 -12.335400
v -122.491501 44.923199 46.108501
v -137.006897 40.528301 37.896801
v -62.521500 49.863800 10.121000
v -97.959099 44.363201 46.564800
v -112.944504 24.136700 -43.104698
v -113.590202 35.013100 -37.070999
v -81.329903 45.346199 -23.755501
v -82.985901 27.243299 -23.500099
v -105.547096 20.790400 49.966400
v -168.125504 31.106501 20.292200
v -60.498299 29.575199 -8.784500
v -60.498299 49.540501 -8.784500
v -142.771194 36.373402 30.985001
v -76.101097 45.271198 -17.097401
v -90.766502 19.708500 -28.468300
v -76.821899 45.042301 -16.211599
v -82.050697 45.117298 -22.869699
v -85.744400 48.861801 -11.449700
v -83.706703 27.014400 -22.614401
v -141.962097 36.145302 30.230400
v -136.197800 40.300301 37.142200
v -142.287292 42.629902 25.632900
v -143.743698 20.562300 39.655602
vt 0.485319 0.562713
vt 0.514208 0.604687
vt 0.326260 0.587360
vt 0.305774 0.517155
vt 0.045401 0.096547
vt 0.254909 0.023051
vt 0.249925 0.089551
vt 0.246160 0.141952
vt 0.242068 0.196860
vt 0.070070 0.213617
vt 0.035305 0.185463
vt 0.876716 0.493969
vt 0.274932 0.851888
vt 0.135202 0.510260
vt 0.008537 0.008538
vt 0.799464 0.216013
vt 0.481066 0.267989
vt 0.535025 0.378288
vt 0.444028 0.396115
vt 0.561535 0.672681
vt 0.532121 0.774844
vt 0.371919 0.766652
vt 0.362328 0.700591
vt 0.408455 0.258817
vt 0.437782 0.299742
vt 0.430346 0.366944
vt 0.205318 0.506717
vt 0.802946 0.717550
vt 0.774825 0.764753
vt 0.699413 0.662850
vt 0.746365 0.603456
vt 0.567451 0.127562
vt 0.590706 0.085881
vt 0.613931 0.050332
vt 0.740417 0.106601
vt 0.678414 0.196089
vt 0.653754 0.202598
vt 0.158464 0.730394
vt 0.179348 0.661527
vt 0.343653 0.642510
vt 0.333497 0.008538
vt 0.374356 0.140569
vt 0.899532 0.203301
vt 0.869303 0.219670
vt 0.384086 0.852017
vt 0.231175 0.851841
vt 0.209422 0.821107
vt 0.377842 0.807504
vt 0.163854 0.532537
vt 0.144994 0.530513
vt 0.112693 0.395176
vt 0.471037 0.980651
vt 0.599307 0.557766
vt 0.008537 0.008538
vt 0.793036 0.338743
vt 0.523697 0.928441
vt 0.681125 0.222555
vt 0.733374 0.253393
vt 0.008537 0.008538
vt 0.588286 0.400319
vt 0.561644 0.664656
vt 0.556464 0.630994
vt 0.571313 0.576956
vt 0.670920 0.699889
vt 0.796886 0.149692
vt 0.772621 0.227500
vt 0.991361 0.547105
vt 0.956540 0.570439
vt 0.896341 0.239468
vt 0.890961 0.342204
vt 0.848817 0.366748
vt 0.829932 0.365759
vt 0.545483 0.540128
vt 0.371150 0.119329
vt 0.375198 0.077608
vt 0.008537 0.008538
vt 0.008537 0.008538
vt 0.208098 0.544293
vt 0.503643 0.962295
vt 0.765316 0.991462
vt 0.008537 0.214625
vt 0.388583 0.524938
vt 0.415036 0.494345
vt 0.515526 0.513874
vt 0.008537 0.008538
vt 0.588388 0.326039
vt 0.511991 0.223750
vt 0.515680 0.838425
vt 0.764031 0.799411
vt 0.189981 0.786431
vt 0.442860 0.423617
vt 0.786384 0.281127
vt 0.537171 0.637729
vt 0.875563 0.708019
vt 0.198258 0.596408
vt 0.563758 0.524404
vt 0.806785 0.374731
vt 0.989873 0.342572
vt 0.048963 0.515231
vt 0.008537 0.603879
vt 0.034537 0.822477
vt 0.180330 0.774821
vt 0.008537 0.946309
vt 0.440374 0.305965
vt 0.033007 0.365180
vt 0.111903 0.400868
vt 0.123168 0.497645
vt 0.809076 0.008538
vt 0.914426 0.081354
vt 0.256090 0.926014
vt 0.524966 0.806983
vt 0.628862 0.724439
vt 0.991352 0.493949
vt 0.499006 0.908199
vt 0.743428 0.831442
vt 0.657767 0.745904
vt 0.041420 0.008538
vt 0.071855 0.039791
vt 0.008537 0.053503
vt 0.563354 0.100105
vt 0.521076 0.110860
vt 0.543578 0.008538
vt 0.590178 0.405870
vt 0.520817 0.516660
vt 0.686764 0.440219
vt 0.590120 0.405152
vt 0.008537 0.008538
vt 0.008537 0.008538
vt 0.008537 0.008538
vt 0.008537 0.008538
vt 0.219752 0.513502
vt 0.374009 0.024465
vt 0.085107 0.008538
vt 0.135454 0.017149
vt 0.074784 0.048210
vt 0.965002 0.112412
vt 0.915069 0.101655
vt 0.929881 0.008538
vt 0.008537 0.008538
vt 0.008537 0.008538
vt 0.008537 0.008538
vt 0.008537 0.008538
vt 0.008537 0.008538
vt 0.008537 0.008538
vt 0.008537 0.008538
vt 0.008537 0.008538
vt 0.506572 0.141064
vt 0.594699 0.418030
vt 0.008537 0.008538
vt 0.730478 0.446100
vt 0.897589 0.603829
vt 0.760119 0.119224
vt 0.167995 0.612394
vt 0.532898 0.008538
vt 0.008537 0.008538
vt 0.628313 0.476138
vt 0.008537 0.008538
vt 0.517557 0.101569
vt 0.008537 0.008538
vt 0.775552 0.008538
vt 0.502987 0.568443
vt 0.756187 0.450970
vt 0.008537 0.008538
vt 0.688877 0.436380
vt 0.008537 0.008538
vt 0.799647 0.213432
vt 0.271560 0.958525
vt 0.786599 0.836629
vt 0.785315 0.959521
vt 0.008537 0.496610
vt 0.991293 0.476253
vt 0.489879 0.906525
vt 0.876730 0.570453
vt 0.709356 0.024726
vt 0.772116 0.510146
vt 0.647464 0.008538
vn -0.448804 -0.713907 -0.537505
vn -0.144491 -0.825650 -0.545367
vn 0.164702 -0.958911 0.231003
vn -0.529197 -0.844595 0.081300
vn -0.373502 0.514302 -0.772004
vn -0.745388 0.486092 -0.456193
vn -0.401491 0.898479 -0.177596
vn -0.401491 0.898479 -0.177596
vn -0.296200 0.936601 -0.187200
vn -0.011400 0.845213 -0.534308
vn 0.050500 0.694306 -0.717906
vn -0.448804 -0.713907 -0.537505
vn -0.529197 -0.844595 0.081300
vn -0.841564 -0.122095 -0.526178
vn -0.529315 -0.120503 -0.839824
vn -0.719678 -0.494685 0.487185
vn -0.361505 -0.706509 0.608408
vn -0.555585 0.073798 0.828178
vn -0.958566 -0.171594 0.227392
vn 0.628683 -0.566384 0.532885
vn 0.267300 -0.963400 -0.020300
vn 0.859617 -0.273605 0.431508
vn 0.477676 -0.123194 0.869856
vn 0.767763 -0.601271 -0.221389
vn 0.381213 -0.723024 -0.576119
vn 0.492080 -0.103596 -0.864364
vn 0.847169 -0.264890 -0.460583
vn 0.092198 -0.795583 -0.598788
vn 0.362795 -0.772489 -0.521192
vn -0.195895 -0.979877 -0.038299
vn -0.021800 -0.995085 0.096599
vn -0.305884 0.910153 0.279386
vn -0.159702 0.803411 0.573608
vn 0.054000 0.631606 0.773407
vn 0.201297 0.900785 0.384794
vn -0.296200 0.936601 -0.187200
vn -0.185298 -0.781393 0.595894
vn -0.069502 -0.823520 0.563014
vn 0.223394 -0.080798 0.971374
vn -0.134904 -0.058502 0.989130
vn 0.092198 -0.795583 -0.598788
vn -0.137499 -0.841793 -0.521995
vn -0.144491 -0.825650 -0.545367
vn -0.448804 -0.713907 -0.537505
vn -0.529315 -0.120503 -0.839824
vn -0.159500 0.034400 -0.986598
vn 0.174398 -0.161799 -0.971291
vn -0.021800 -0.995085 0.096599
vn -0.185298 -0.781393 0.595894
vn -0.338295 -0.761490 0.552892
vn 0.164203 -0.973820 0.157203
vn -0.745388 0.486092 -0.456193
vn -0.787168 0.612475 -0.072397
vn -0.430192 0.679788 0.593989
vn -0.401491 0.898479 -0.177596
vn -0.529197 -0.844595 0.081300
vn -0.719678 -0.494685 0.487185
vn -0.958566 -0.171594 0.227392
vn -0.841564 -0.122095 -0.526178
vn 0.267300 -0.963400 -0.020300
vn 0.767763 -0.601271 -0.221389
vn 0.847169 -0.264890 -0.460583
vn 0.978266 -0.199593 0.056198
vn 0.859617 -0.273605 0.431508
vn 0.267300 -0.963400 -0.020300
vn 0.628683 -0.566384 0.532885
vn 0.083199 -0.823289 0.561492
vn -0.183599 -0.972995 -0.139899
vn 0.201297 0.900785 0.384794
vn 0.644213 0.733415 0.217005
vn 0.587209 0.786212 -0.192503
vn 0.017099 0.699262 -0.714661
vn -0.011400 0.845213 -0.534308
vn -0.296200 0.936601 -0.187200
vn -0.841564 -0.122095 -0.526178
vn -0.745388 0.486092 -0.456193
vn -0.373502 0.514302 -0.772004
vn -0.529315 -0.120503 -0.839824
vn -0.134904 -0.058502 0.989130
vn -0.364089 0.468286 0.805076
vn -0.888727 0.178605 0.422213
vn -0.555585 0.073798 0.828178
vn 0.859617 -0.273605 0.431508
vn 0.807343 0.245413 0.536628
vn 0.322210 0.194706 0.926429
vn 0.477676 -0.123194 0.869856
vn 0.154004 0.220606 -0.963128
vn 0.111801 0.471205 -0.874909
vn 0.814026 0.485315 -0.319110
vn 0.491497 0.090200 -0.866195
vn 0.477676 -0.123194 0.869856
vn 0.322210 0.194706 0.926429
vn 0.054000 0.631606 0.773407
vn -0.159702 0.803411 0.573608
vn -0.364089 0.468286 0.805076
vn -0.134904 -0.058502 0.989130
vn 0.223394 -0.080798 0.971374
vn 0.224491 -0.056098 0.972860
vn -0.529315 -0.120503 -0.839824
vn -0.373502 0.514302 -0.772004
vn 0.050500 0.694306 -0.717906
vn 0.111801 0.471205 -0.874909
vn 0.154004 0.220606 -0.963128
vn -0.159500 0.034400 -0.986598
vn -0.958566 -0.171594 0.227392
vn -0.883002 0.255400 0.393801
vn -0.787168 0.612475 -0.072397
vn -0.745388 0.486092 -0.456193
vn -0.841564 -0.122095 -0.526178
vn 0.978266 -0.199593 0.056198
vn 0.881710 -0.047401 -0.469405
vn 0.743230 0.347314 -0.571823
vn 0.587209 0.786212 -0.192503
vn 0.644213 0.733415 0.217005
vn 0.807343 0.245413 0.536628
vn 0.859617 -0.273605 0.431508
vn -0.364089 0.468286 0.805076
vn -0.159702 0.803411 0.573608
vn -0.305884 0.910153 0.279386
vn -0.787168 0.612475 -0.072397
vn -0.883002 0.255400 0.393801
vn 0.158803 0.388607 0.907616
vn -0.430192 0.679788 0.593989
vn 0.644213 0.733415 0.217005
vn 0.201297 0.900785 0.384794
vn 0.807343 0.245413 0.536628
vn 0.054000 0.631606 0.773407
vn 0.322210 0.194706 0.926429
vn 0.807343 0.245413 0.536628
vn 0.201297 0.900785 0.384794
vn 0.050500 0.694306 -0.717906
vn -0.011400 0.845213 -0.534308
vn 0.111801 0.471205 -0.874909
vn 0.587209 0.786212 -0.192503
vn 0.743230 0.347314 -0.571823
vn -0.066298 0.343591 -0.936776
vn 0.017099 0.699262 -0.714661
vn 0.174398 -0.161799 -0.971291
vn -0.159500 0.034400 -0.986598
vn 0.154004 0.220606 -0.963128
vn 0.847169 -0.264890 -0.460583
vn 0.881710 -0.047401 -0.469405
vn 0.978266 -0.199593 0.056198
vn 0.174398 -0.161799 -0.971291
vn 0.154004 0.220606 -0.963128
vn 0.491497 0.090200 -0.866195
vn 0.492695 -0.117799 -0.862192
vn 0.381213 -0.723024 -0.576119
vn 0.362795 -0.772489 -0.521192
vn 0.492695 -0.117799 -0.862192
vn 0.492080 -0.103596 -0.864364
vn 0.381213 -0.723024 -0.576119
vn 0.767763 -0.601271 -0.221389
vn 0.267300 -0.963400 -0.020300
vn -0.183599 -0.972995 -0.139899
vn 0.083199 -0.823289 0.561492
vn 0.628683 -0.566384 0.532885
vn 0.477676 -0.123194 0.869856
vn 0.224491 -0.056098 0.972860
vn 0.083199 -0.823289 0.561492
vn -0.069502 -0.823520 0.563014
vn -0.195895 -0.979877 -0.038299
vn -0.183599 -0.972995 -0.139899
vn -0.066298 0.343591 -0.936776
vn 0.743230 0.347314 -0.571823
vn 0.881710 -0.047401 -0.469405
vn 0.491497 0.090200 -0.866195
vn -0.310715 0.155208 -0.937746
vn 0.973831 -0.057002 0.220007
vn 0.686323 -0.218107 -0.693823
vn 0.491497 0.090200 -0.866195
vn 0.881710 -0.047401 -0.469405
vn 0.847169 -0.264890 -0.460583
vn 0.492080 -0.103596 -0.864364
vn 0.362795 -0.772489 -0.521192
vn 0.381213 -0.723024 -0.576119
vn -0.183599 -0.972995 -0.139899
vn -0.195895 -0.979877 -0.038299
vn -0.069502 -0.823520 0.563014
vn 0.083199 -0.823289 0.561492
vn 0.224491 -0.056098 0.972860
vn 0.223394 -0.080798 0.971374
vn 0.973831 -0.057002 0.220007
vn -0.310715 0.155208 -0.937746
vn 0.450719 0.865636 -0.218009
vn 0.491497 0.090200 -0.866195
vn 0.492080 -0.103596 -0.864364
vn 0.492695 -0.117799 -0.862192
vn 0.362795 -0.772489 -0.521192
vn 0.092198 -0.795583 -0.598788
vn 0.174398 -0.161799 -0.971291
vn 0.492695 -0.117799 -0.862192
vn -0.069502 -0.823520 0.563014
vn -0.185298 -0.781393 0.595894
vn -0.021800 -0.995085 0.096599
vn -0.195895 -0.979877 -0.038299
vn 0.814026 0.485315 -0.319110
vn 0.111801 0.471205 -0.874909
vn -0.011400 0.845213 -0.534308
vn 0.017099 0.699262 -0.714661
vn -0.066298 0.343591 -0.936776
vn 0.491497 0.090200 -0.866195
vn 0.450719 0.865636 -0.218009
vn -0.310715 0.155208 -0.937746
vn 0.491497 0.090200 -0.866195
vn 0.814026 0.485315 -0.319110
vn 0.973831 -0.057002 0.220007
vn 0.450719 0.865636 -0.218009
vn 0.814026 0.485315 -0.319110
vn 0.017099 0.699262 -0.714661
vn 0.686323 -0.218107 -0.693823
vn 0.973831 -0.057002 0.220007
vn 0.017099 0.699262 -0.714661
vn -0.066298 0.343591 -0.936776
vn -0.310715 0.155208 -0.937746
vn 0.686323 -0.218107 -0.693823
vn -0.144491 -0.825650 -0.545367
vn -0.137499 -0.841793 -0.521995
vn 0.164203 -0.973820 0.157203
vn 0.164702 -0.958911 0.231003
vn -0.361505 -0.706509 0.608408
vn -0.338295 -0.761490 0.552892
vn -0.555585 0.073798 0.828178
vn -0.361505 -0.706509 0.608408
vn -0.719678 -0.494685 0.487185
vn -0.529197 -0.844595 0.081300
vn 0.164702 -0.958911 0.231003
vn -0.430192 0.679788 0.593989
vn -0.401491 0.898479 -0.177596
vn -0.401491 0.898479 -0.177596
vn 0.158803 0.388607 0.907616
vn -0.883002 0.255400 0.393801
vn -0.958566 -0.171594 0.227392
vn -0.555585 0.073798 0.828178
vn -0.130603 0.396908 0.908519
vn -0.951078 -0.283194 -0.123497
vn -0.156700 -0.393899 0.905698
vn -0.338295 -0.761490 0.552892
vn -0.361505 -0.706509 0.608408
vn 0.164702 -0.958911 0.231003
vn 0.164203 -0.973820 0.157203
vn -0.951078 -0.283194 -0.123497
vn -0.130603 0.396908 0.908519
vn -0.261099 0.957597 0.121800
vn -0.137499 -0.841793 -0.521995
vn 0.092198 -0.795583 -0.598788
vn -0.021800 -0.995085 0.096599
vn 0.164203 -0.973820 0.157203
vn -0.338295 -0.761490 0.552892
vn -0.185298 -0.781393 0.595894
vn -0.134904 -0.058502 0.989130
vn -0.555585 0.073798 0.828178
vn -0.430192 0.679788 0.593989
vn -0.305884 0.910153 0.279386
vn -0.296200 0.936601 -0.187200
vn -0.401491 0.898479 -0.177596
vn -0.888727 0.178605 0.422213
vn -0.364089 0.468286 0.805076
vn -0.305884 0.910153 0.279386
vn -0.430192 0.679788 0.593989
vn 0.158803 0.388607 0.907616
vn -0.555585 0.073798 0.828178
vn -0.261099 0.957597 0.121800
vn -0.130603 0.396908 0.908519
vn -0.555585 0.073798 0.828178
vn -0.888727 0.178605 0.422213
vn -0.951078 -0.283194 -0.123497
vn -0.261099 0.957597 0.121800
vn -0.888727 0.178605 0.422213
vn -0.430192 0.679788 0.593989
vn -0.156700 -0.393899 0.905698
vn -0.951078 -0.283194 -0.123497
vn -0.430192 0.679788 0.593989
vn 0.158803 0.388607 0.907616
vn -0.130603 0.396908 0.908519
vn -0.156700 -0.393899 0.905698
s off
g Pierre:Pierre
usemtl Pierre:wire_141007058
f 1/1/1 2/2/2 3/3/3 4/4/4
f 5/5/5 6/6/6 7/7/7 8/8/8 9/9/9 10/10/10 11/11/11
f 1/97/12 4/98/13 12/171/14 13/175/15
f 14/99/16 15/14/17 16/153/18 17/100/19
f 18/101/20 19/102/21 20/167/22 21/103/23
f 22/104/24 23/17/25 24/18/26 25/19/27
f 26/20/28 27/21/29 28/22/30 29/23/31
f 30/24/32 31/25/33 32/26/34 33/27/35 9/9/36
f 34/28/37 35/29/38 36/30/39 37/31/40
f 26/32/41 38/33/42 2/34/43 1/176/44 13/35/45 39/36/46 40/37/47
f 29/23/48 34/38/49 41/39/50 42/40/51
f 6/6/52 43/41/53 44/42/54 7/7/55
f 4/105/56 14/106/57 17/107/58 12/170/59
f 19/108/60 22/109/61 25/43/62 45/44/63 20/166/64
f 19/45/65 18/46/66 46/47/67 47/48/68
f 33/27/69 48/49/70 49/50/71 50/51/72 10/10/73 9/9/74
f 12/172/75 6/52/76 5/110/77 13/13/78
f 37/31/79 51/53/80 52/156/81 16/150/82
f 20/168/83 53/169/84 54/56/85 21/111/86
f 55/57/87 56/58/88 57/164/89 58/60/90
f 21/112/91 54/61/92 32/62/93 31/63/94 51/53/95 37/31/96 36/30/97 59/64/98
f 13/35/99 5/65/100 11/66/101 56/58/102 55/57/103 39/36/104
f 17/113/105 60/67/106 43/68/107 6/173/108 12/12/109
f 45/44/110 61/69/111 62/70/112 49/71/113 48/72/114 53/55/115 20/16/116
f 51/53/117 31/63/118 30/73/119
f 43/74/120 60/75/121 63/158/122 44/147/123
f 48/49/124 33/27/125 53/78/126
f 32/79/127 54/56/128 53/169/129 33/80/130
f 11/11/131 10/10/132 56/81/133
f 49/82/134 62/83/135 64/84/136 50/161/137
f 40/37/138 39/36/139 55/57/140
f 25/43/141 61/69/142 45/44/143
f 40/37/144 55/57/145 58/60/146 65/86/147
f 23/17/148 27/87/149 65/86/150 24/18/151
f 23/88/152 22/114/153 19/45/154 47/48/155
f 46/89/156 18/115/157 21/116/158 59/64/159
f 46/47/160 35/90/161 28/22/162 47/48/163
f 64/84/164 62/83/165 61/91/166 58/60/167
f 66/117/168 67/118/169 68/119/170
f 58/60/171 61/91/172 25/19/173 24/18/174
f 27/21/175 23/88/176 47/48/177 28/22/178
f 35/29/179 46/89/180 59/64/181 36/30/182
f 67/120/183 66/121/184 69/122/185
f 58/60/186 24/18/187 65/86/188
f 27/87/189 26/32/190 40/37/191 65/86/192
f 35/90/193 34/38/194 29/23/195 28/22/196
f 57/164/197 56/58/198 10/92/199 50/162/200
f 64/84/201 58/60/202 69/123/203 66/124/204
f 58/60/205 57/164/206 67/125/207 69/126/208
f 57/59/209 50/163/210 68/127/211 67/128/212
f 50/85/213 64/165/214 66/129/215 68/130/216
f 2/2/217 38/93/218 42/40/219 3/3/220
f 15/174/221 41/160/222 16/152/223
f 15/95/224 14/131/225 4/4/226 3/3/227
f 44/42/228 8/8/229 7/7/230
f 63/158/231 60/75/232 17/132/233 16/154/234
f 70/133/235 71/134/236 72/135/237
f 41/39/238 15/95/239 3/3/240 42/40/241
f 71/136/242 70/137/243 73/138/244
f 38/93/245 26/20/246 29/23/247 42/40/248
f 41/94/249 34/28/250 37/31/251 16/151/252
f 44/42/253 30/24/254 9/9/255 8/8/256
f 52/156/257 51/53/258 30/96/259 44/148/260
f 63/76/261 16/155/262 73/139/263 70/140/264
f 16/15/265 52/157/266 71/141/267 73/142/268
f 52/54/269 44/149/270 72/143/271 71/144/272
f 44/77/273 63/159/274 70/145/275 72/146/276
